# xmcd
# Track frame offsets:
# 150
# 10558
# 23934
# 35469
# 47904
# 58555
# 68574
# 80193
# 90322
# 99946
# 111008
# 121899
# 132700
# 144746
# 156316
# 168333
# 179397
# 192167
# 201220
# 210683
#
# Disc length: 2941 seconds
# Revision: 0
# Processed by: cddbd v1.5.2PL0 Copyright (c) Steve Scherf et al.
# Submitted via: VisiTrax 2.11.3.279 - For more info visit www.synapsa.com
#
DISCID=140b7b14
DTITLE=Various (1950's-1960's) Doo-Wop Artists - Ultimate Doo-Wop[ Collection
DTITLE=: The: CD2of3: *ReMastered Tracks
DYEAR=1954
DGENRE=Doo-Wop
TTITLE0=Gene Chandler - Duke Of Earl*
TTITLE1=Penguins The - Earth Angel*
TTITLE2=Skyliners The - Since I Don't Have You*
TTITLE3=Curtis Lee - Pretty Little Angel Eyes*
TTITLE4=Enchords The - Zoom Zoom Zoom*
TTITLE5=Cleftones The - The Glory Of Love*
TTITLE6=Velvets The - Spring Fever*
TTITLE7=Titans The - Arlene*
TTITLE8=Dino and The Diplomats - My Dream*
TTITLE9=Danny and The Juniors - A Thousand Miles Away*
TTITLE10=Crests The - Beside You*
TTITLE11=Mystics The - A Sunday Kind Of Love*
TTITLE12=Cadillacs The - No Chance*
TTITLE13=Jive Five The - My True Story*
TTITLE14=Dell-Vikings The - Come Go With Me*
TTITLE15=Duprees The - Ginny*
TTITLE16=Coasters The - Zing! Went The Strings Of My Heart*
TTITLE17=Chelmars The - Confess*
TTITLE18=Marcels The - Sweet Was The Wine*
TTITLE19=Capris The - There's A Moon Out Tonight*
EXTD=Comppilation and ReMastering: Not Now Music: 2016
EXTT0=
EXTT1=
EXTT2=
EXTT3=
EXTT4=
EXTT5=
EXTT6=
EXTT7=
EXTT8=
EXTT9=
EXTT10=
EXTT11=
EXTT12=
EXTT13=
EXTT14=
EXTT15=
EXTT16=
EXTT17=
EXTT18=
EXTT19=
PLAYORDER=
